<?xml version="1.0" encoding="utf-8"?>
<!-- Generator: Adobe Illustrator 19.0.0, SVG Export Plug-In . SVG Version: 6.00 Build 0)  -->
<svg version="1.1" id="Layer_1" xmlns="http://www.w3.org/2000/svg" xmlns:xlink="http://www.w3.org/1999/xlink" x="0px" y="0px"
	 viewBox="0 0 96 96" style="enable-background:new 0 0 96 96;" xml:space="preserve">
<g id="XMLID_2_">
	<path style="fill:rgba(106, 241, 208)" id="XMLID_6_" class="st0" d="M68,31.3c0-0.9-0.3-1.7-0.9-2.3c-0.6-0.6-1.4-0.9-2.3-0.9c-0.9,0-1.7,0.3-2.3,0.9
		s-0.9,1.4-0.9,2.3s0.3,1.7,0.9,2.3c0.6,0.6,1.4,0.9,2.3,0.9c0.9,0,1.7-0.3,2.3-0.9C67.6,33,68,32.2,68,31.3z M75.5,21.6
		c0,5.6-0.8,10.4-2.5,14.5c-1.7,4.1-4.5,8.1-8.5,12.1c-1.8,1.8-4,3.8-6.6,5.9l-0.7,12.8c0,0.4-0.2,0.7-0.5,0.9l-12.9,7.5
		c-0.2,0.1-0.3,0.1-0.5,0.1c-0.3,0-0.5-0.1-0.8-0.3L40.2,73c-0.3-0.3-0.4-0.7-0.3-1.1l2.9-9.3l-9.5-9.5L24.1,56c-0.1,0-0.2,0-0.3,0
		c-0.3,0-0.6-0.1-0.8-0.3l-2.2-2.2c-0.4-0.4-0.4-0.9-0.2-1.3l7.5-12.9c0.2-0.3,0.5-0.5,0.9-0.5l12.8-0.7c2.2-2.6,4.1-4.7,5.9-6.6
		c4.2-4.2,8.2-7.1,12.1-8.7c3.8-1.6,8.7-2.4,14.5-2.4c0.3,0,0.6,0.1,0.8,0.3C75.4,21,75.5,21.3,75.5,21.6z"/>
</g>
</svg>
