<?xml version="1.0" encoding="utf-8"?>
<!-- Generator: Adobe Illustrator 19.0.0, SVG Export Plug-In . SVG Version: 6.00 Build 0)  -->
<svg version="1.1" id="Layer_1" xmlns="http://www.w3.org/2000/svg" xmlns:xlink="http://www.w3.org/1999/xlink" x="0px" y="0px"
	 viewBox="0 0 96 96" style="enable-background:new 0 0 96 96;" xml:space="preserve">
<g id="XMLID_2_">
	<path style="fill:rgba(245, 185, 68)" id="XMLID_8_" class="st0" d="M40.1,32.3h15.7v-3.9H40.1V32.3z M29.3,32.3v39.3h-2c-1.9,0-3.5-0.7-4.8-2c-1.4-1.4-2-3-2-4.8
		V39.2c0-1.9,0.7-3.5,2-4.8c1.4-1.4,3-2,4.8-2H29.3z M63.7,32.3v39.3H32.3V32.3h3.9v-4.9c0-0.8,0.3-1.5,0.9-2.1s1.3-0.9,2.1-0.9
		h17.7c0.8,0,1.5,0.3,2.1,0.9c0.6,0.6,0.9,1.3,0.9,2.1v4.9H63.7z M75.5,39.2v25.5c0,1.9-0.7,3.5-2,4.8c-1.4,1.4-3,2-4.8,2h-2V32.3h2
		c1.9,0,3.5,0.7,4.8,2C74.8,35.7,75.5,37.3,75.5,39.2z"/>
</g>
</svg>
